<svg xmlns="http://www.w3.org/2000/svg" xmlns:xlink="http://www.w3.org/1999/xlink" preserveAspectRatio="xMidYMid" width="10" height="16" viewBox="0 0 10 16">
  <defs>
    <style>

      .cls-2 {
        fill: #000000;
      }
    </style>
  </defs>
  <path d="M1.399,15.999 C1.399,15.999 0.999,15.610 0.999,15.610 C0.999,15.610 0.599,15.999 0.599,15.999 C0.599,15.999 0.012,15.428 0.012,15.428 C0.012,15.428 7.639,8.000 7.639,8.000 C7.639,8.000 0.012,0.571 0.012,0.571 C0.012,0.571 0.599,-0.000 0.599,-0.000 C0.599,-0.000 0.999,0.389 0.999,0.389 C0.999,0.389 1.399,-0.000 1.399,-0.000 C1.399,-0.000 9.612,8.000 9.612,8.000 C9.612,8.000 1.399,15.999 1.399,15.999 Z" id="path-1" class="cls-2" fill-rule="evenodd"/>
</svg>
