<svg xmlns="http://www.w3.org/2000/svg" xmlns:xlink="http://www.w3.org/1999/xlink" preserveAspectRatio="xMidYMid" width="7" height="20" viewBox="0 0 7 20">
  <defs>
    <style>

      .cls-2 {
        fill: #000000;
      }
    </style>
  </defs>
  <path d="M6.622,10.625 C6.622,10.625 6.622,10.625 6.622,10.625 C6.622,10.625 0.953,20.000 0.953,20.000 C0.953,20.000 0.666,19.524 0.666,19.524 C0.666,19.524 0.378,20.000 0.378,20.000 C0.378,20.000 -0.000,19.375 -0.000,19.375 C-0.000,19.375 5.668,10.000 5.668,10.000 C5.668,10.000 -0.000,0.625 -0.000,0.625 C-0.000,0.625 0.378,-0.000 0.378,-0.000 C0.378,-0.000 0.666,0.476 0.666,0.476 C0.666,0.476 0.953,-0.000 0.953,-0.000 C0.953,-0.000 7.000,10.000 7.000,10.000 C7.000,10.000 6.622,10.625 6.622,10.625 Z" id="path-1" class="cls-2" fill-rule="evenodd"/>
</svg>
