<svg xmlns="http://www.w3.org/2000/svg" xmlns:xlink="http://www.w3.org/1999/xlink" preserveAspectRatio="xMidYMid" width="7" height="20" viewBox="0 0 7 20">
  <defs>
    <style>

      .cls-2 {
        fill: #000000;
      }
    </style>
  </defs>
  <path d="M7.000,19.375 C7.000,19.375 6.622,20.000 6.622,20.000 C6.622,20.000 6.334,19.524 6.334,19.524 C6.334,19.524 6.047,20.000 6.047,20.000 C6.047,20.000 0.000,10.000 0.000,10.000 C0.000,10.000 0.378,9.375 0.378,9.375 C0.378,9.375 0.378,9.375 0.378,9.375 C0.378,9.375 6.047,0.000 6.047,0.000 C6.047,0.000 6.334,0.476 6.334,0.476 C6.334,0.476 6.622,0.000 6.622,0.000 C6.622,0.000 7.000,0.625 7.000,0.625 C7.000,0.625 1.332,10.000 1.332,10.000 C1.332,10.000 7.000,19.375 7.000,19.375 Z" id="path-1" class="cls-2" fill-rule="evenodd"/>
</svg>
