<?xml version="1.0" encoding="utf-8"?>
<!DOCTYPE svg PUBLIC "-//W3C//DTD SVG 1.1//EN" "http://www.w3.org/Graphics/SVG/1.1/DTD/svg11.dtd">
<svg version="1.1" baseProfile="full"
 xmlns="http://www.w3.org/2000/svg"
 xmlns:xlink="http://www.w3.org/1999/xlink"
 xmlns:ev="http://www.w3.org/2001/xml-events" 
  height="9px" 
  width="9px" 
>
<path fill="rgb( 255, 255, 255 )"
 d="M9,7.71400000000006 C9,7.71400000000006 7.71400000000006,9 7.71400000000006,9 C7.71400000000006,9 4.5,5.78599999999994 4.5,5.78599999999994 C4.5,5.78599999999994 1.28599999999994,9 1.28599999999994,9 C1.28599999999994,9 0,7.71400000000006 0,7.71400000000006 C0,7.71400000000006 3.21400000000006,4.5 3.21400000000006,4.5 C3.21400000000006,4.5 0,1.28599999999994 0,1.28599999999994 C0,1.28599999999994 1.28599999999994,0 1.28599999999994,0 C1.28599999999994,0 4.5,3.21400000000006 4.5,3.21400000000006 C4.5,3.21400000000006 7.71400000000006,0 7.71400000000006,0 C7.71400000000006,0 9,1.28599999999994 9,1.28599999999994 C9,1.28599999999994 5.78599999999994,4.5 5.78599999999994,4.5 C5.78599999999994,4.5 9,7.71400000000006 9,7.71400000000006 Z "/>
</svg>
