<svg width="29" viewBox="0 0 45.6 59.6" enable-background="new 0 0 45.6 59.6"><g><path d="M16.1 49.2l4.8-4.9c.6-.6 1.4-.9 2.2-.9.8 0 1.6.3 2.2.9l4.8 4.9c.3.3.6.8.7 1.2h2.4c.6 0 1.1.5 1.1 1.1 0 .6-.5 1.1-1.1 1.1h-2.2c-.2.4-.4.8-.7 1.2l-4.8 4.9c-.6.6-1.4.9-2.2.9-.8 0-1.6-.3-2.2-.9l-4.8-4.9c-.3-.3-.6-.8-.7-1.2h-2.6c-.6 0-1.1-.5-1.1-1.1 0-.6.5-1.1 1.1-1.1h2.4c.1-.5.4-.9.7-1.2z"/><path d="M39.1 1.4h3.6c.8 0 1.5.3 2 .8s.8 1.2.8 2v10.1c0 .8-.3 1.5-.8 2s-1.2.8-2 .8h-3.6c-.8 0-1.4-.3-2-.8-.5-.5-.8-1.2-.8-2v-10.1c0-.8.3-1.5.8-2 .6-.5 1.3-.8 2-.8zm3.7 2.2h-3.6c-.2 0-.3.1-.4.2-.1.1-.2.2-.2.4v10.1c0 .2.1.3.2.4.1.1.2.2.4.2h3.6c.2 0 .3-.1.4-.2.1-.1.2-.2.2-.4v-10.1c0-.2-.1-.3-.2-.4-.1-.1-.3-.2-.4-.2z"/><path d="M3.5 1.4h3.6c.8 0 1.5.3 2 .8s.8 1.2.8 2v10.1c0 .8-.3 1.5-.8 2s-1.2.8-2 .8h-3.6c-.8 0-1.4-.3-2-.8-.5-.5-.8-1.2-.8-2v-10.1c0-.8.3-1.5.8-2s1.2-.8 2-.8zm3.6 2.2h-3.6c-.2 0-.3.1-.4.2-.1.1-.2.2-.2.4v10.1c0 .2.1.3.2.4.1.1.2.2.4.2h3.6c.2 0 .3-.1.4-.2.1-.1.2-.2.2-.4v-10.1c0-.2-.1-.3-.2-.4-.1-.1-.2-.2-.4-.2z"/><path d="M39.2 44.1h3.6c.8 0 1.5.3 2 .8s.8 1.2.8 2v10.1c0 .8-.3 1.5-.8 2s-1.2.8-2 .8h-3.6c-.8 0-1.4-.3-2-.8-.5-.5-.8-1.2-.8-2v-10.1c0-.8.3-1.5.8-2s1.2-.8 2-.8z"/><path d="M3.5 44.1h3.6c.8 0 1.5.3 2 .8s.8 1.2.8 2v10.1c0 .8-.3 1.5-.8 2s-1.2.8-2 .8h-3.6c-.8 0-1.4-.3-2-.8-.5-.5-.8-1.2-.8-2v-10.1c0-.8.3-1.5.8-2s1.2-.8 2-.8z"/><path d="M13 8.1c-.6 0-1.1.5-1.1 1.1s.5 1.1 1.1 1.1h2.4c.2.4.4.8.7 1.2l4.8 4.9c.6.6 1.4.9 2.2.9.8 0 1.6-.3 2.2-.9l4.8-4.9c.3-.3.6-.8.7-1.2h2.4c.6 0 1.1-.5 1.1-1.1s-.5-1.1-1.1-1.1h-2.2c-.2-.4-.4-.8-.7-1.2l-4.9-4.9c-.6-.6-1.4-.9-2.2-.9-.8 0-1.6.3-2.2.9l-4.8 4.9c-.3.3-.6.8-.7 1.2h-2.5zm5 2.2h10.3l-4.4 4.5c-.2.2-.4.3-.7.3-.2 0-.5-.1-.7-.3l-4.5-4.5zm10.3-2.2h-10.3l4.4-4.5c.2-.2.4-.3.7-.3.2 0 .5.1.7.3l4.5 4.5z"/><path d="M22.1 30.4v9.5c0 .6.5 1.1 1.1 1.1s1.1-.5 1.1-1.1v-19c0-.6-.5-1.1-1.1-1.1s-1.1.5-1.1 1.1v9.5z"/></g></svg>