<?xml version="1.0" encoding="UTF-8"?>
<!-- Generator: Adobe Illustrator 17.0.0, SVG Export Plug-In . SVG Version: 6.00 Build 0)  -->
<!DOCTYPE svg PUBLIC "-//W3C//DTD SVG 1.1//EN" "http://www.w3.org/Graphics/SVG/1.1/DTD/svg11.dtd">
<svg version="1.1" xmlns="http://www.w3.org/2000/svg" xmlns:xlink="http://www.w3.org/1999/xlink" x="0px" y="0px" width="23.542px" height="24.36px" viewBox="0 0 23.542 24.36" enable-background="new 0 0 23.542 24.36" xml:space="preserve">
<g id="Слой_1__x28_копия_x29_">
	<path fill-rule="evenodd" clip-rule="evenodd" fill="none" stroke="#ffffff" stroke-miterlimit="10" d="M13.243,0.618   c5.412,0,9.799,4.387,9.799,9.799s-4.387,9.799-9.799,9.799c-5.412,0-9.799-4.387-9.799-9.799S7.831,0.618,13.243,0.618z"/>
	<path fill-rule="evenodd" clip-rule="evenodd" fill="#ffffff" stroke="#ffffff" d="M5.908,16.472l1.98,1.98L1.98,24.36L0,22.381L5.908,16.472z"/>
</g>
<g id="Слой_1">
	<path fill-rule="evenodd" clip-rule="evenodd" fill="none" stroke="#ffffff" stroke-miterlimit="10" d="M13.243,0.618   c5.412,0,9.799,4.387,9.799,9.799s-4.387,9.799-9.799,9.799c-5.412,0-9.799-4.387-9.799-9.799S7.831,0.618,13.243,0.618z"/>
	<path display="none" fill-rule="evenodd" clip-rule="evenodd" fill="none" d="M346.399,251.764l1.98,1.98l-8.908,8.908l-1.98-1.98   L346.399,251.764z"/>
</g>
</svg>