<svg xmlns="http://www.w3.org/2000/svg" viewBox="0 0 26.9 54.7" enable-background="new 0 0 26.9 54.7"><path fill="#010101" d="M5.3 50v3.6c0 .6.5 1.1 1.1 1.1s1.1-.5 1.1-1.1v-3.6h11.5v3.6c0 .6.5 1.1 1.1 1.1.6 0 1.1-.5 1.1-1.1v-3.6h1.2c2.4 0 4.4-2 4.4-4.4v-23.1c0-2.4-2-4.4-4.4-4.4h-1.6v-14.8c0-.9-.4-1.7-1-2.3-.6-.6-1.4-1-2.3-1h-7.6c-.9 0-1.7.4-2.3 1-.6.6-1 1.4-1 2.3v14.8h-2.2c-2.4 0-4.4 2-4.4 4.4v23.1c0 2.4 2 4.4 4.4 4.4h.9zm13.4-31.9h-9.9v-14.8c0-.3.1-.6.3-.8.2-.2.5-.3.8-.3h7.7c.3 0 .6.1.8.3.2.2.3.5.3.8v14.8z"/></svg>