<?xml version="1.0" encoding="utf-8"?>
<!-- Generator: Adobe Illustrator 18.1.0, SVG Export Plug-In . SVG Version: 6.00 Build 0)  -->
<svg version="1.1" id="Layer_1" xmlns="http://www.w3.org/2000/svg" xmlns:xlink="http://www.w3.org/1999/xlink" x="0px" y="0px"
	 viewBox="0 0 512 512" enable-background="new 0 0 512 512" xml:space="preserve">
<path fill-rule="evenodd" clip-rule="evenodd" fill="#1bb4ed" d="M512,479.8V37.6c-1.8-7.2,2.8-59.7-44.5-25.4
	c-46.2,30.6-172.5,116-172.5,116s-32.2,30.8-78.4,0.1c-61.2-40.5-175-116-175-116S1.5-20.8,0,34.5c0,104.4,0,449.1,0,449.1
	s0,38.3,34.4,26C49.9,499,67.9,486.8,82,477.3c24.3-20.9,24-51.4,24-51.4s0-34.2,0-50.6c0-56.2,37.3-16.9,37.3-16.9
	s50.2,34,72.5,49.2c44.4,23.4,74.3,1.9,74.3,1.9s64-43.5,88-59.8c29.5-23.1,27.8,23.9,27.8,23.9v35.4c0,0-4,36,23.7,60.7
	c13.8,11,30.8,24.5,45.5,36.2C518.9,527.3,512,479.8,512,479.8z M381.5,244c-0.2,0-97,65.9-97,65.9s-27.4,17.8-59.9,0.1
	c-29.9-20.3-99.9-67.8-99.9-67.8s-18.6-5.6-18.6-33.5c0-7.4,0-24,0-24s-2.3-36.2,25.5-13.7c25.3,17.2,64.1,43.5,91.3,62
	c28.5,22,62.4,0.4,62.4,0.4s62.9-42.8,102.5-69.8c17.4-12.9,15.1,9.9,15.1,9.9l0,30C402.9,203.6,406.5,226.3,381.5,244z"/>
</svg>
