<?xml version="1.0" encoding="UTF-8" standalone="no"?>
<svg width="211px" height="52px" viewBox="0 0 211 52" version="1.1" xmlns="http://www.w3.org/2000/svg" xmlns:xlink="http://www.w3.org/1999/xlink" xmlns:sketch="http://www.bohemiancoding.com/sketch/ns">
    <!-- Generator: Sketch 3.5 (25232) - http://www.bohemiancoding.com/sketch -->
    <title>Logo Horisontal</title>
    <desc>Created with Sketch.</desc>
    <defs/>
    <g id="Page-1" stroke="none" stroke-width="1" fill="none" fill-rule="evenodd" sketch:type="MSPage">
        <g id="Logo-Horisontal" sketch:type="MSLayerGroup" transform="translate(-11.000000, -6.000000)" stroke="#d9d9d9" stroke-width="1.4" stroke-linejoin="round">
            <g id="Group" transform="translate(74.135407, 25.840979)" sketch:type="MSShapeGroup" stroke-linecap="square">
                <path d="M6.73455575,0 L0,13.5168196 L13.4691115,13.5168196 L6.73455575,0 Z" id="Path-1"/>
                <path d="M17.4811873,0 L17.4811873,13.5168196 L27.5113767,0 L27.5113767,13.5168196" id="Path-2"/>
                <path d="M31.5234525,13.5168196 L38.2580082,0 L44.992564,13.5168196" id="Path-3"/>
                <path d="M114.774025,13.5168196 L121.50858,0 L128.243136,13.5168196" id="Path-3-copy"/>
                <path d="M131.395481,13.5168196 L138.130037,0 L144.864593,13.5168196" id="Path-3-copy-2"/>
                <path d="M56.4556376,0 L49.3135356,0 L49.2912166,13.5168196 L56.4341903,13.5168196" id="Path-4"/>
                <path d="M49.3803005,6.54271586 L56.3436935,6.54271586" id="Path-5"/>
                <path d="M82.2475532,13.5168196 L95.7166647,0" id="Path-8"/>
                <path d="M82.2475532,0 L95.7166647,13.5168196" id="Path-9"/>
                <ellipse id="Oval-2" cx="105.603566" cy="6.75840979" rx="6.73455575" ry="6.75840979"/>
                <path d="M63.1901934,13.5168196 L63.1901933,6.75840979 L63.1901934,0.00208715306 L67.0151526,0.00208715306 C67.0151526,0.00208715306 71.0710563,-0.200336224 71.0710564,3.38179508 C71.0710564,6.96392639 67.0151525,6.75840979 67.0151525,6.75840979 L63.1901933,6.75840979" id="Path-14"/>
            </g>
            <polygon id="Polygon-1" sketch:type="MSShapeGroup" transform="translate(32.759835, 32.500000) rotate(-300.000000) translate(-32.759835, -32.500000) " points="32.7598353 11.7278287 50.892886 22.1139144 50.892886 42.8860856 32.7598353 53.2721713 14.6267846 42.8860856 14.6267846 22.1139144 "/>
            <polygon id="Polygon-1-copy" sketch:type="MSShapeGroup" transform="translate(32.759835, 32.500000) rotate(-300.000000) translate(-32.759835, -32.500000) " points="32.7598353 8.74617737 53.4957162 20.6230887 53.4957162 44.3769113 32.7598353 56.2538226 12.0239544 44.3769113 12.0239544 20.6230887 "/>
            <path d="M32.7587408,11.7330821 L50.8881123,42.8837077 C50.8881123,42.8837077 41.4013472,42.9357798 36.6555431,42.9357798 C29.3126006,42.9357808 14.6293692,42.8837077 14.6293692,42.8837077 L32.7587408,11.7330821 Z" id="Polygon-4" stroke-linecap="square" sketch:type="MSShapeGroup"/>
        </g>
    </g>
</svg>