<?xml version="1.0" encoding="utf-8"?>
<!DOCTYPE svg PUBLIC "-//W3C//DTD SVG 1.1//EN" "http://www.w3.org/Graphics/SVG/1.1/DTD/svg11.dtd">
<svg version="1.1" baseProfile="full"
 xmlns="http://www.w3.org/2000/svg"
 xmlns:xlink="http://www.w3.org/1999/xlink"
 xmlns:ev="http://www.w3.org/2001/xml-events" 
  height="12px" 
  width="8px" 
>
<path fill="#7f7f7f"
 d="M6.94899999999996,6.39999999999998 C6.94899999999996,6.39999999999998 6.94899999999996,6.39999999999998 6.94899999999996,6.39999999999998 C6.94899999999996,6.39999999999998 1.61099999999999,11.6 1.61099999999999,11.6 C1.61099999999999,11.6 1.33100000000002,11.327 1.33100000000002,11.327 C1.33100000000002,11.327 1.05100000000004,11.6 1.05100000000004,11.6 C1.05100000000004,11.6 0.63999999999999,11.2 0.63999999999999,11.2 C0.63999999999999,11.2 5.97900000000004,6 5.97900000000004,6 C5.97900000000004,6 0.63999999999999,0.79999999999995 0.63999999999999,0.79999999999995 C0.63999999999999,0.79999999999995 1.05100000000004,0.39999999999998 1.05100000000004,0.39999999999998 C1.05100000000004,0.39999999999998 1.33100000000002,0.673 1.33100000000002,0.673 C1.33100000000002,0.673 1.61099999999999,0.39999999999998 1.61099999999999,0.39999999999998 C1.61099999999999,0.39999999999998 7.36000000000001,6 7.36000000000001,6 C7.36000000000001,6 6.94899999999996,6.39999999999998 6.94899999999996,6.39999999999998 Z "/>
</svg>
