<?xml version="1.0" encoding="utf-8"?>
<!DOCTYPE svg PUBLIC "-//W3C//DTD SVG 1.1//EN" "http://www.w3.org/Graphics/SVG/1.1/DTD/svg11.dtd">
<svg version="1.1" baseProfile="full"
 xmlns="http://www.w3.org/2000/svg"
 xmlns:xlink="http://www.w3.org/1999/xlink"
 xmlns:ev="http://www.w3.org/2001/xml-events" 
  height="19px" 
  width="18px" 
>
<path fill="rgb( 237, 237, 237 )"
 d="M18,10.999 C18,10.999 10,10.999 10,10.999 C10,10.999 10,18.999 10,18.999 C10,18.999 8,18.999 8,18.999 C8,18.999 8,10.999 8,10.999 C8,10.999 0,10.999 0,10.999 C0,10.999 0,8.99900000000002 0,8.99900000000002 C0,8.99900000000002 8,8.99900000000002 8,8.99900000000002 C8,8.99900000000002 8,0.99900000000002 8,0.99900000000002 C8,0.99900000000002 10,0.99900000000002 10,0.99900000000002 C10,0.99900000000002 10,8.99900000000002 10,8.99900000000002 C10,8.99900000000002 18,8.99900000000002 18,8.99900000000002 C18,8.99900000000002 18,10.999 18,10.999 Z "/>
</svg>
