<?xml version="1.0" encoding="utf-8"?>
<!DOCTYPE svg PUBLIC "-//W3C//DTD SVG 1.1//EN" "http://www.w3.org/Graphics/SVG/1.1/DTD/svg11.dtd">
<svg version="1.1" baseProfile="full"
 xmlns="http://www.w3.org/2000/svg"
 xmlns:xlink="http://www.w3.org/1999/xlink"
 xmlns:ev="http://www.w3.org/2001/xml-events" 
  height="17px" 
  width="14px" 
>
<path fill="rgb( 27, 180, 237 )"
 d="M10,17 C10,17 10,9 10,9 C10,9 14,9 14,9 C14,9 14,17 14,17 C14,17 10,17 10,17 ZM5,0 C5,0 9,0 9,0 C9,0 9,17 9,17 C9,17 5,17 5,17 C5,17 5,0 5,0 ZM0,6 C0,6 4,6 4,6 C4,6 4,17 4,17 C4,17 0,17 0,17 C0,17 0,6 0,6 Z "/>
</svg>
