<svg xmlns="http://www.w3.org/2000/svg" xmlns:xlink="http://www.w3.org/1999/xlink" preserveAspectRatio="xMidYMid" width="14" height="17" viewBox="0 0 14 17">
  <defs>
    <style>

      .cls-2 {
        fill: #ffffff;
      }
    </style>
  </defs>
  <path d="M10.000,17.000 C10.000,17.000 10.000,9.000 10.000,9.000 C10.000,9.000 14.000,9.000 14.000,9.000 C14.000,9.000 14.000,17.000 14.000,17.000 C14.000,17.000 10.000,17.000 10.000,17.000 ZM5.000,-0.000 C5.000,-0.000 9.000,-0.000 9.000,-0.000 C9.000,-0.000 9.000,17.000 9.000,17.000 C9.000,17.000 5.000,17.000 5.000,17.000 C5.000,17.000 5.000,-0.000 5.000,-0.000 ZM0.000,6.000 C0.000,6.000 4.000,6.000 4.000,6.000 C4.000,6.000 4.000,17.000 4.000,17.000 C4.000,17.000 0.000,17.000 0.000,17.000 C0.000,17.000 0.000,6.000 0.000,6.000 Z" id="path-1" class="cls-2" fill-rule="evenodd"/>
</svg>
