<?xml version="1.0" encoding="UTF-8" standalone="no"?>
<svg width="569px" height="389px" viewBox="0 0 569 389" version="1.1" xmlns="http://www.w3.org/2000/svg" xmlns:xlink="http://www.w3.org/1999/xlink" xmlns:sketch="http://www.bohemiancoding.com/sketch/ns">
    <!-- Generator: Sketch 3.1.1 (8761) - http://www.bohemiancoding.com/sketch -->
    <title>Vector 6</title>
    <desc>Created with Sketch.</desc>
    <defs></defs>
    <g id="Page-1" stroke="none" stroke-width="1" fill="none" fill-rule="evenodd" sketch:type="MSPage">
        <g id="Logo-Vertical" sketch:type="MSLayerGroup" transform="translate(20.000000, -22.000000)" stroke-width="7" stroke="#ffffff" stroke-linejoin="round">
            <g id="Group" sketch:type="MSShapeGroup">
                <path d="M24.5,340 L0,389 L49,389 L24.5,340 Z" id="Path-1" stroke-linecap="square"></path>
                <path d="M64,340 L64,389 L101,340 L101,389" id="Path-2" stroke-linecap="square"></path>
                <path d="M116,389 L140.5,340 L165,389" id="Path-3" stroke-linecap="square"></path>
                <path d="M419,389 L443.5,340 L468,389" id="Path-3-copy" stroke-linecap="square"></path>
                <path d="M480,389 L504.5,340 L529,389" id="Path-3-copy-2" stroke-linecap="square"></path>
                <path d="M206,340 L180.080997,340 L180,389 L205.922167,389" id="Path-4" stroke-linecap="square"></path>
                <path d="M180.323289,364.5 L205.59375,364.5" id="Path-5" stroke-linecap="square"></path>
                <path d="M300,389 L349,340" id="Path-8" stroke-linecap="square"></path>
                <path d="M300,340 L349,389" id="Path-9" stroke-linecap="square"></path>
                <circle id="Oval-2" stroke-linecap="square" cx="385.5" cy="364.5" r="24.5"></circle>
                <path d="M231,389 L231,364.5 L231,340.007566 L245.075085,340.007566 C245.075085,340.007566 260,339.273759 260,352.25939 C260,365.245021 245.075085,364.5 245.075085,364.5 L231,364.5" id="Path-14" stroke-linecap="square"></path>
                <polygon id="Polygon-1" transform="translate(264.500000, 163.500000) rotate(-300.000000) translate(-264.500000, -163.500000) " points="264.5 59 354.999655 111.25 354.999655 215.75 264.5 268 174.000345 215.75 174.000345 111.25 "></polygon>
                <polygon id="Polygon-1-copy" transform="translate(264.500000, 163.500000) rotate(-300.000000) translate(-264.500000, -163.500000) " points="264.5 44 367.990036 103.75 367.990036 223.25 264.5 283 161.009964 223.25 161.009964 103.75 "></polygon>
                <path d="M264.494537,59.0264282 L354.97583,215.738037 C354.97583,215.738037 307.628641,216 283.942962,216 C247.295308,216.000005 174.013245,215.738037 174.013245,215.738037 L264.494537,59.0264282 Z" id="Polygon-4" stroke-linecap="square"></path>
            </g>
        </g>
        <g id="Logo-Vertical-2" sketch:type="MSLayerGroup" transform="translate(20.000000, -22.000000)" stroke-width="7" stroke="#ffffff" stroke-linejoin="round">
            <g id="Group" sketch:type="MSShapeGroup">
                <path d="M24.5,340 L0,389 L49,389 L24.5,340 Z" id="Path-1" stroke-linecap="square"></path>
                <path d="M64,340 L64,389 L101,340 L101,389" id="Path-2" stroke-linecap="square"></path>
                <path d="M116,389 L140.5,340 L165,389" id="Path-3" stroke-linecap="square"></path>
                <path d="M419,389 L443.5,340 L468,389" id="Path-3-copy" stroke-linecap="square"></path>
                <path d="M480,389 L504.5,340 L529,389" id="Path-3-copy-2" stroke-linecap="square"></path>
                <path d="M206,340 L180.080997,340 L180,389 L205.922167,389" id="Path-4" stroke-linecap="square"></path>
                <path d="M180.323289,364.5 L205.59375,364.5" id="Path-5" stroke-linecap="square"></path>
                <path d="M300,389 L349,340" id="Path-8" stroke-linecap="square"></path>
                <path d="M300,340 L349,389" id="Path-9" stroke-linecap="square"></path>
                <circle id="Oval-2" stroke-linecap="square" cx="385.5" cy="364.5" r="24.5"></circle>
                <path d="M231,389 L231,364.5 L231,340.007566 L245.075085,340.007566 C245.075085,340.007566 260,339.273759 260,352.25939 C260,365.245021 245.075085,364.5 245.075085,364.5 L231,364.5" id="Path-14" stroke-linecap="square"></path>
                <polygon id="Polygon-1" transform="translate(264.500000, 163.500000) rotate(-300.000000) translate(-264.500000, -163.500000) " points="264.5 59 354.999655 111.25 354.999655 215.75 264.5 268 174.000345 215.75 174.000345 111.25 "></polygon>
                <polygon id="Polygon-1-copy" transform="translate(264.500000, 163.500000) rotate(-300.000000) translate(-264.500000, -163.500000) " points="264.5 44 367.990036 103.75 367.990036 223.25 264.5 283 161.009964 223.25 161.009964 103.75 "></polygon>
                <path d="M264.494537,59.0264282 L354.97583,215.738037 C354.97583,215.738037 307.628641,216 283.942962,216 C247.295308,216.000005 174.013245,215.738037 174.013245,215.738037 L264.494537,59.0264282 Z" id="Polygon-4" stroke-linecap="square"></path>
            </g>
        </g>
    </g>
</svg>